<?xml version="1.0" encoding="UTF-8"?>
<svg version="1.1" xmlns="http://www.w3.org/2000/svg" width="256" height="256">
<path d="M0 0 C84.48 0 168.96 0 256 0 C256 84.48 256 168.96 256 256 C171.52 256 87.04 256 0 256 C0 171.52 0 87.04 0 0 Z " fill="#F7F6F5" transform="translate(0,0)"/>
<path d="M0 0 C1.76947998 -0.00717545 1.76947998 -0.00717545 3.57470703 -0.01449585 C6.06609431 -0.01789477 8.55752619 -0.00869315 11.04882812 0.01220703 C14.86168899 0.03896907 18.67160568 0.01245507 22.484375 -0.01953125 C24.9062565 -0.01622716 27.32813616 -0.00982094 29.75 0 C31.45953857 -0.01518173 31.45953857 -0.01518173 33.20361328 -0.03067017 C40.98165321 0.08447885 40.98165321 0.08447885 45.09130859 2.75073242 C47.31692663 6.38586793 47.5202705 8.68877654 47.5390625 12.94140625 C47.54384613 13.63037491 47.54862976 14.31934357 47.55355835 15.02919006 C47.55694775 16.48066502 47.5478121 17.93221731 47.52685547 19.38354492 C47.50010688 21.592735 47.52660376 23.79682777 47.55859375 26.00585938 C47.55528867 27.42188611 47.54888038 28.83790969 47.5390625 30.25390625 C47.53342285 31.53128662 47.5277832 32.80866699 47.52197266 34.12475586 C46.88290143 37.62083721 46.06591656 39.93717833 43.59567261 42.55329895 C39.97418645 44.89111429 35.80049054 44.33687431 31.640625 44.1875 C29.6015646 44.17668012 27.56250196 44.16627661 25.5234375 44.15625 C22.3260759 44.10428429 19.12949027 44.03916964 15.93261719 43.96289062 C2.04875948 42.9686403 2.04875948 42.9686403 -9.828125 48.765625 C-10.40723633 49.51408691 -10.98634766 50.26254883 -11.58300781 51.03369141 C-12.09186523 51.57171387 -12.60072266 52.10973633 -13.125 52.6640625 C-15.22137451 52.26596069 -15.22137451 52.26596069 -17.125 51.6640625 C-17.25189295 45.2047221 -17.33938968 38.74570366 -17.3996582 32.28540039 C-17.42478509 30.0883381 -17.45889246 27.89135926 -17.50219727 25.69458008 C-17.56292762 22.53445845 -17.59122833 19.37544293 -17.61328125 16.21484375 C-17.63908768 15.23445633 -17.6648941 14.25406891 -17.69148254 13.24397278 C-17.69324582 8.94577719 -17.50339411 6.32960048 -15.35229492 2.54614258 C-10.36824744 -0.36043296 -5.67271098 -0.05037709 0 0 Z " fill="#37AE85" transform="translate(178.125,45.3359375)"/>
<path d="M0 0 C5.44310055 1.91516501 8.25191243 4.92972255 11.07421875 9.88671875 C12.06279957 12.14335261 12.36073172 13.92802295 12.5625 16.375 C12.79323891 19.04808849 13.09603689 21.38414758 13.75 24 C14.11034528 28.32414338 12.94834866 32.13422885 11 36 C7.81237635 38.12508244 5.73487777 38.5020163 2 39 C1.67 40.32 1.34 41.64 1 43 C1.845625 43.20625 2.69125 43.4125 3.5625 43.625 C10.57355827 46.42942331 14.90850351 51.19870773 18 58 C18.25 60.9375 18.25 60.9375 18 63 C11.02716791 62.85473266 7.80450366 59.81396134 3 55 C2.36578125 54.33355469 1.7315625 53.66710937 1.078125 52.98046875 C0.47484375 52.34753906 -0.1284375 51.71460938 -0.75 51.0625 C-1.28109375 50.47597656 -1.8121875 49.88945313 -2.359375 49.28515625 C-4.17747653 47.58889202 -4.17747653 47.58889202 -8 48 C-12.82873245 56.49902789 -16.92811016 64.35666248 -19 74 C-22.47914941 74.02887814 -25.95826831 74.04675687 -29.4375 74.0625 C-30.92733398 74.07506836 -30.92733398 74.07506836 -32.44726562 74.08789062 C-33.39150391 74.09111328 -34.33574219 74.09433594 -35.30859375 74.09765625 C-36.18314209 74.10289307 -37.05769043 74.10812988 -37.95874023 74.11352539 C-40 74 -40 74 -41 73 C-42.22504899 63.86640688 -40.44705007 56.45329029 -35 49 C-31.904707 46.17916648 -28.64163155 44.05057171 -25 42 C-24.28585938 41.59136719 -23.57171875 41.18273437 -22.8359375 40.76171875 C-21.89621094 40.22998047 -21.89621094 40.22998047 -20.9375 39.6875 C-17.92935366 38.3193696 -17.92935366 38.3193696 -17 36 C-16.58680258 31.20690996 -16.63965101 28.22027063 -19 24 C-21.37219364 19.69459517 -21.55313346 16.89918206 -21 12 C-17.45973505 1.96924932 -9.90265034 -0.83791657 0 0 Z " fill="#0E4869" transform="translate(86,58)"/>
<path d="M0 0 C4.62371396 2.18575569 8.40886671 5.54079886 11 10 C11.68859262 13.12659262 11.65551769 16.15262189 11.59375 19.34375 C11.59379028 20.23106812 11.59383057 21.11838623 11.59387207 22.03259277 C11.58852923 23.90184645 11.57099948 25.77110049 11.54199219 27.64013672 C11.50012829 30.4912629 11.50092867 33.34002432 11.5078125 36.19140625 C11.49731896 38.01303715 11.48437997 39.83465594 11.46875 41.65625 C11.46854858 42.50328491 11.46834717 43.35031982 11.46813965 44.22302246 C11.36905509 49.21111475 10.74076415 52.67230365 8 57 C2.90092623 61.83070147 -1.79218805 63.48937967 -8.72265625 63.31640625 C-13.69450655 62.6256346 -16.98299574 60.09729407 -20.375 56.4375 C-22.9128782 52.6306827 -23.11508224 49.78199072 -23.0625 45.3125 C-23.05347656 44.31863281 -23.04445313 43.32476562 -23.03515625 42.30078125 C-23.02355469 41.54152344 -23.01195313 40.78226563 -23 40 C-20.03 40 -17.06 40 -14 40 C-14 38.68 -14 37.36 -14 36 C-16.97 36 -19.94 36 -23 36 C-23 34.02 -23 32.04 -23 30 C-20.03 30 -17.06 30 -14 30 C-14 28.68 -14 27.36 -14 26 C-16.97 26 -19.94 26 -23 26 C-23 24.02 -23 22.04 -23 20 C-20.03 20 -17.06 20 -14 20 C-14 18.68 -14 17.36 -14 16 C-16.97 16 -19.94 16 -23 16 C-22.64423657 10.07060954 -21.19369925 7.19369925 -17 3 C-11.55556992 -0.89151963 -6.48615661 -0.78433144 0 0 Z " fill="#0D4769" transform="translate(134,100)"/>
<path d="M0 0 C7.91478597 5.46497127 8.89488195 13.88703117 10.625 22.8125 C9.635 23.1425 8.645 23.4725 7.625 23.8125 C7.521875 24.740625 7.41875 25.66875 7.3125 26.625 C6.625 29.8125 6.625 29.8125 5.4375 31.6875 C2.82485125 33.30914405 0.62979298 33.01281953 -2.375 32.8125 C-2.7153125 34.42125 -2.7153125 34.42125 -3.0625 36.0625 C-4.54581931 40.30055516 -5.844897 41.2294978 -9.375 43.8125 C-11.16462819 46.43107695 -11.16462819 46.43107695 -12.375 48.8125 C-15.375 47.8125 -15.375 47.8125 -17.1875 45.5 C-19.60672659 42.52780734 -22.12551411 40.80650271 -25.375 38.8125 C-24.6325 38.338125 -23.89 37.86375 -23.125 37.375 C-18.73359373 33.2830078 -15.72217205 26.88801096 -15.375 20.8125 C-15.67148438 20.24015625 -15.96796875 19.6678125 -16.2734375 19.078125 C-18.58624364 14.32128968 -19.34838608 9.0687488 -19.375 3.8125 C-18.37034972 1.52007073 -17.55392893 0.75676709 -15.421875 -0.51953125 C-10.11608819 -2.25099984 -5.20333485 -1.830803 0 0 Z " fill="#5345A7" transform="translate(118.375,61.1875)"/>
<path d="M0 0 C1.32 0.33 2.64 0.66 4 1 C4.01417969 1.67804688 4.02835937 2.35609375 4.04296875 3.0546875 C4.46045343 11.20128045 6.10467452 17.93425403 11.875 23.95703125 C17.23242435 28.16221544 22.20572076 28.79734339 28.91015625 28.453125 C34.76516411 27.59448921 38.89202494 25.49936567 42.875 21.125 C47.18617916 14.78503064 47.49511813 8.46693708 48 1 C49.9375 0.4375 49.9375 0.4375 52 0 C53.75478582 1.75478582 53.25528528 4.11504963 53.3125 6.5 C53.22332081 14.85311762 50.47536251 21.26261347 44.84375 27.42578125 C40.21651274 31.37657916 35.08717869 34 29 34 C29 38.95 29 43.9 29 49 C32.0628125 48.8453125 32.0628125 48.8453125 35.1875 48.6875 C42.6080717 48.67133318 42.6080717 48.67133318 45.3125 51.3125 C47 54 47 54 47 57 C33.14 57 19.28 57 5 57 C6.06082845 52.75668621 6.58169893 51.55806636 10 49 C14.39213729 48.46954864 18.55887926 48.82235517 23 49 C23 44.05 23 39.1 23 34 C19.535 33.505 19.535 33.505 16 33 C8.95708296 29.84477317 4.57980178 24.71212834 1 18 C-0.2062252 14.38132441 -0.10816918 11.07493749 -0.0625 7.3125 C-0.05798828 6.61060547 -0.05347656 5.90871094 -0.04882812 5.18554688 C-0.03706927 3.45699462 -0.01913454 1.72848635 0 0 Z " fill="#184D6D" transform="translate(102,138)"/>
<path d="M0 0 C2.0625 0.4375 2.0625 0.4375 4 1 C3.42087 4.68300652 2.38699082 7.38747623 0.5625 10.625 C-5.00020003 21.49316537 -5.63658339 34.17278624 -2.25 45.8125 C-1.03128603 49.4686419 0.27660425 52.72979811 2.3125 56 C4 59 4 59 3.75 61.9375 C3.5025 62.618125 3.255 63.29875 3 64 C-2.15818004 62.1060678 -3.3822778 58.06982639 -5.60546875 53.34765625 C-11.11626062 40.11866848 -11.79521348 26.57468521 -7 13 C-2.21991701 2.21991701 -2.21991701 2.21991701 0 0 Z " fill="#194D6E" transform="translate(79,110)"/>
<path d="M0 0 C2.36946355 0.37650374 3.67341748 0.65348076 5.34375 2.42578125 C12.87700455 14.71822027 14.95523896 27.61262944 12.3125 41.75 C10.20536098 49.52100914 7.26282015 56.86377565 2 63 C1.01 62.67 0.02 62.34 -1 62 C-0.19197701 56.57614567 2.22852417 52.1332693 4.625 47.25390625 C8.59620545 37.85613881 8.65119584 24.43681515 5.1875 14.8125 C3.98523103 11.9886654 2.64353188 9.29979476 1.25 6.5625 C0 4 0 4 0 0 Z " fill="#12496B" transform="translate(174,111)"/>
<path d="M0 0 C0.33 0 0.66 0 1 0 C1.33 10.89 1.66 21.78 2 33 C2.33 33 2.66 33 3 33 C4.05906284 37.32450659 4.22371264 39.48098667 2.4375 43.625 C-0.89087945 48.73234089 -5.18643831 52.07336378 -11 54 C-17.43681095 54.86713515 -23.35176979 54.98749784 -29 51.5 C-33.04406695 48.28414602 -36.48647446 45.04238722 -38 40 C-38.09621823 35.58915355 -37.67064489 31.35587178 -37 27 C-36.01 27 -35.02 27 -34 27 C-33.97421875 27.71285156 -33.9484375 28.42570312 -33.921875 29.16015625 C-33.54357304 35.54830074 -32.96126341 39.89205507 -29 45 C-24.87545013 48.59960716 -20.69182032 49.64977943 -15.27734375 49.390625 C-10.41933603 48.55734752 -6.43169773 46.52406533 -3.0625 42.9375 C-0.65710236 38.55118665 -0.78331542 34.26184434 -0.68359375 29.39453125 C-0.66281265 28.55532639 -0.64203156 27.71612152 -0.62062073 26.85148621 C-0.55525982 24.17190706 -0.49630286 21.49223031 -0.4375 18.8125 C-0.39430198 16.99543263 -0.35068727 15.17837512 -0.30664062 13.36132812 C-0.1995922 8.90765201 -0.09828681 4.45387774 0 0 Z " fill="#ECEDEE" transform="translate(145,113)"/>
<path d="M0 0 C2.125 0.375 2.125 0.375 4 1 C2.93528292 4.27605255 1.82824086 7.36994276 0.375 10.5 C-3.0023822 19.49486483 -1.72534731 30.30182668 2 39 C2.66 39.99 3.32 40.98 4 42 C3.625 44.1875 3.625 44.1875 3 46 C-1.22973881 44.24793246 -2.28118309 42.23206162 -4.1171875 38.19140625 C-8.76316181 26.65870011 -7.9977948 15.96835174 -3.2890625 4.58203125 C-2 2 -2 2 0 0 Z " fill="#1D5070" transform="translate(88,119)"/>
<path d="M0 0 C1.83203125 0.203125 1.83203125 0.203125 4 1 C5.44921875 3.109375 5.44921875 3.109375 6.6875 5.75 C7.10386719 6.61109375 7.52023438 7.4721875 7.94921875 8.359375 C11.86138718 18.1906979 10.64195007 29.27797429 7 39 C5.79837444 41.47216155 4.49263619 43.6838404 3 46 C1.68 45.67 0.36 45.34 -1 45 C-0.51955502 42.79501043 0.06979412 40.83966972 0.97265625 38.765625 C4.76095604 30.02130576 5.78784621 20.12645575 3.09375 10.89453125 C2.05514708 8.29072998 2.05514708 8.29072998 0.875 6.015625 C0 4 0 4 0 0 Z " fill="#1F5171" transform="translate(165,119)"/>
<path d="M0 0 C0.33 0 0.66 0 1 0 C1.50066883 2.45959639 1.99558974 4.92004572 2.48046875 7.3828125 C2.88595098 9.42546736 3.31365323 11.46371509 3.75 13.5 C3.87375 14.7375 3.87375 14.7375 4 16 C3.34 16.66 2.68 17.32 2 18 C1.521762 19.27714425 1.08838621 20.57150498 0.6875 21.875 C-0.69851139 25.80441375 -2.4519359 27.69855302 -6 30 C-5.16855469 30.52787109 -5.16855469 30.52787109 -4.3203125 31.06640625 C2.33731268 35.60354227 2.33731268 35.60354227 3.5625 39.6875 C4 43 4 43 3 46 C2.6596875 45.40832031 2.319375 44.81664062 1.96875 44.20703125 C-2.06954181 37.62332678 -6.19502427 34.40248787 -13 31 C-12.67 29.35 -12.34 27.7 -12 26 C-10.741875 25.855625 -9.48375 25.71125 -8.1875 25.5625 C-5.44011894 24.88052598 -4.33188675 24.50833287 -2.765625 22.109375 C-0.93705215 17.03767295 -0.91305782 13.21732244 -2 8 C-1.67 7.67 -1.34 7.34 -1 7 C-0.63239269 4.67182036 -0.29758419 2.3381615 0 0 Z " fill="#E4E4EB" transform="translate(100,70)"/>
<path d="M0 0 C12.67629549 1.10228656 21.06057835 7.19483214 29.3046875 16.640625 C31 19 31 19 30.75 21.3125 C30.5025 21.869375 30.255 22.42625 30 23 C26.68539324 21.59489496 24.9648557 19.99907653 22.75 17.1875 C16.32236623 9.58744376 8.41185279 6.58364587 -1 4 C-0.67 2.68 -0.34 1.36 0 0 Z " fill="#53AAA2" transform="translate(135,86)"/>
<path d="M0 0 C13.2 0 26.4 0 40 0 C40 1.32 40 2.64 40 4 C26.8 4 13.6 4 0 4 C0 2.68 0 1.36 0 0 Z " fill="#E7F1ED" transform="translate(173,56)"/>
<path d="M0 0 C0.33 0 0.66 0 1 0 C1.33 10.89 1.66 21.78 2 33 C2.33 33 2.66 33 3 33 C4.05906284 37.32450659 4.22371264 39.48098667 2.4375 43.625 C-1.50528547 49.63369703 -6.14212294 52.49126705 -13 54 C-13 53.34 -13 52.68 -13 52 C-12.34 52 -11.68 52 -11 52 C-11 51.34 -11 50.68 -11 50 C-11.66 49.67 -12.32 49.34 -13 49 C-12.45730469 48.75765625 -11.91460937 48.5153125 -11.35546875 48.265625 C-5.7788472 45.70537714 -5.7788472 45.70537714 -2 41 C-0.71225554 37.13676662 -0.76617207 33.42509463 -0.68359375 29.39453125 C-0.6524221 28.13572395 -0.6524221 28.13572395 -0.62062073 26.85148621 C-0.55525982 24.17190706 -0.49630286 21.49223031 -0.4375 18.8125 C-0.39430198 16.99543263 -0.35068727 15.17837512 -0.30664062 13.36132812 C-0.1995922 8.90765201 -0.09828681 4.45387774 0 0 Z " fill="#C8CFD5" transform="translate(145,113)"/>
<path d="M0 0 C10.56 0 21.12 0 32 0 C32 1.32 32 2.64 32 4 C21.44 4 10.88 4 0 4 C0 2.68 0 1.36 0 0 Z " fill="#F1F5F2" transform="translate(173,66)"/>
<path d="M0 0 C0.99 0 1.98 0 3 0 C2.835 1.051875 2.67 2.10375 2.5 3.1875 C1.51071038 11.1159497 1.51427653 19.14689024 3 27 C1.68 27 0.36 27 -1 27 C-4.23235662 19.20771173 -5.75124325 11.41617864 -2.5625 3.375 C-1 1 -1 1 0 0 Z " fill="#285776" transform="translate(97,128)"/>
<path d="M0 0 C1.32 0 2.64 0 4 0 C6.72465641 4.67083956 7.4078557 8.11166563 7.375 13.5 C7.38273438 14.7684375 7.39046875 16.036875 7.3984375 17.34375 C6.97796733 21.20218216 5.94222805 23.67046621 4 27 C2.68 26.67 1.36 26.34 0 26 C0.52268466 23.23723823 1.10869587 20.6739124 2 18 C2.41544067 12.84080655 2.17207889 8.75142256 0 4 C0 2.68 0 1.36 0 0 Z " fill="#164B6C" transform="translate(156,128)"/>
<path d="M0 0 C1.32 0.33 2.64 0.66 4 1 C3.01 1.495 3.01 1.495 2 2 C2 2.66 2 3.32 2 4 C2.66 4.33 3.32 4.66 4 5 C3.01 5.33 2.02 5.66 1 6 C-3.80475855 13.36979892 -6.27178425 21.44988 -8 30 C-8.33 29.34 -8.66 28.68 -9 28 C-9.66 28 -10.32 28 -11 28 C-11 17.76237188 -5.57637027 8.3645554 0 0 Z " fill="#EFF0F0" transform="translate(78,105)"/>
<path d="M0 0 C2.125 0.375 2.125 0.375 4 1 C2.92875421 4.29614088 1.7877007 7.53401652 0.5 10.75 C-1.26772972 15.3801956 -2.15171651 20.12985481 -3 25 C-3.33 25 -3.66 25 -4 25 C-6.24653559 16.30226422 -6.21968797 10.0636503 -2 2 C-1.34 1.34 -0.68 0.68 0 0 Z " fill="#0D4668" transform="translate(88,119)"/>
<path d="M0 0 C6.93 0 13.86 0 21 0 C21 1.32 21 2.64 21 4 C14.07 4 7.14 4 0 4 C0 2.68 0 1.36 0 0 Z " fill="#ECF3F0" transform="translate(173,76)"/>
<path d="M0 0 C1.98 0 3.96 0 6 0 C6.33 0.99 6.66 1.98 7 3 C8.80387476 4.41763251 8.80387476 4.41763251 10.9375 5.75 C13.82507688 7.82512246 15.52811863 9.24199022 16.5625 12.6875 C17 16 17 16 16 19 C15.6596875 18.40832031 15.319375 17.81664063 14.96875 17.20703125 C10.93045819 10.62332678 6.80497573 7.40248787 0 4 C0 2.68 0 1.36 0 0 Z " fill="#E7E8EC" transform="translate(87,97)"/>
<path d="M0 0 C0.66 0 1.32 0 2 0 C1.67 7.59 1.34 15.18 1 23 C0.01 22.67 -0.98 22.34 -2 22 C-2.05416741 19.27056463 -2.09375225 16.54221436 -2.125 13.8125 C-2.14175781 13.04357422 -2.15851563 12.27464844 -2.17578125 11.48242188 C-2.21266851 7.1850566 -1.9958504 3.92098169 0 0 Z " fill="#144B6C" transform="translate(73,128)"/>
<path d="M0 0 C0.66 0 1.32 0 2 0 C2.0272367 2.52090778 2.04695207 5.04151457 2.0625 7.5625 C2.07087891 8.26697266 2.07925781 8.97144531 2.08789062 9.69726562 C2.10882603 14.24024798 1.74800682 18.51784892 1 23 C0.67 22.01 0.34 21.02 0 20 C-1.32 20.33 -2.64 20.66 -4 21 C-3.67 16.38 -3.34 11.76 -3 7 C-2.67 7 -2.34 7 -2 7 C-1.67 8.98 -1.34 10.96 -1 13 C-0.67 8.71 -0.34 4.42 0 0 Z " fill="#1F5171" transform="translate(185,132)"/>
<path d="M0 0 C1.75 0.0625 1.75 0.0625 4 1 C6.83257126 5.09149182 8.61838818 7.89829756 8 13 C7.34 13 6.68 13 6 13 C5.67 14.32 5.34 15.64 5 17 C4.15838146 14.91999989 3.32699237 12.83585854 2.5 10.75 C2.0359375 9.58984375 1.571875 8.4296875 1.09375 7.234375 C0 4 0 4 0 0 Z " fill="#124869" transform="translate(165,119)"/>
<path d="M0 0 C0.66 0.99 1.32 1.98 2 3 C1.67 3.66 1.34 4.32 1 5 C1.99 5 2.98 5 4 5 C2.77472971 9.05281712 1.30119506 12.44360764 -1 16 C-2.32 15.67 -3.64 15.34 -5 15 C-4.24029922 11.64132288 -3.12906745 8.47876342 -1.9375 5.25 C-1.57527344 4.26515625 -1.21304688 3.2803125 -0.83984375 2.265625 C-0.56269531 1.51796875 -0.28554687 0.7703125 0 0 Z " fill="#205271" transform="translate(169,149)"/>
<path d="M0 0 C1.32 0.33 2.64 0.66 4 1 C4.08133791 2.91595968 4.13934367 4.83291932 4.1875 6.75 C4.22230469 7.81734375 4.25710937 8.8846875 4.29296875 9.984375 C3.97082786 13.30027855 3.22851086 14.59016673 1 17 C-0.53266582 13.93466836 -0.10276471 10.73245728 -0.0625 7.375 C-0.05798828 6.66859375 -0.05347656 5.9621875 -0.04882812 5.234375 C-0.03703875 3.48954725 -0.01910324 1.744763 0 0 Z " fill="#0A4365" transform="translate(102,138)"/>
<path d="M0 0 C0.66 0.33 1.32 0.66 2 1 C2.8515625 3.80078125 2.8515625 3.80078125 3.625 7.3125 C3.88539062 8.46363281 4.14578125 9.61476562 4.4140625 10.80078125 C5 14 5 14 5 18 C3.68 18 2.36 18 1 18 C-1.3548854 11.76647981 -0.87557031 6.54311329 0 0 Z " fill="#0C4567" transform="translate(95,137)"/>
<path d="M0 0 C0.33 0 0.66 0 1 0 C1.33 14.52 1.66 29.04 2 44 C1.01 44 0.02 44 -1 44 C-2 41 -2 41 -1 38 C-0.84586124 35.12561452 -0.74252715 32.27101014 -0.68359375 29.39453125 C-0.66281265 28.55532639 -0.64203156 27.71612152 -0.62062073 26.85148621 C-0.55525982 24.17190706 -0.49630286 21.49223031 -0.4375 18.8125 C-0.39430198 16.99543263 -0.35068727 15.17837512 -0.30664062 13.36132812 C-0.1995922 8.90765201 -0.09828681 4.45387774 0 0 Z " fill="#ECF3EF" transform="translate(160,54)"/>
<path d="M0 0 C1.32 0 2.64 0 4 0 C5.94232218 4.73351109 6.04500674 7.86607439 5.125 12.875 C4.92132813 14.02742187 4.71765625 15.17984375 4.5078125 16.3671875 C4.25644531 17.67042969 4.25644531 17.67042969 4 19 C3.67 19 3.34 19 3 19 C2.86722656 18.13117188 2.73445312 17.26234375 2.59765625 16.3671875 C2.42105469 15.21476563 2.24445313 14.06234375 2.0625 12.875 C1.88847656 11.73804688 1.71445313 10.60109375 1.53515625 9.4296875 C1.04410734 6.28267331 0.52981281 3.14069217 0 0 Z " fill="#0F4667" transform="translate(156,128)"/>
<path d="M0 0 C0.66 0 1.32 0 2 0 C2.19436491 2.45796853 2.3807742 4.91609294 2.5625 7.375 C2.61857422 8.07367188 2.67464844 8.77234375 2.73242188 9.4921875 C3.11328125 14.7734375 3.11328125 14.7734375 2 17 C1.01 17 0.02 17 -1 17 C-1.12036664 11.22240116 -0.8320582 5.72040011 0 0 Z " fill="#0B4567" transform="translate(171,137)"/>
<path d="M0 0 C0.99 0.33 1.98 0.66 3 1 C2.67 5.29 2.34 9.58 2 14 C1.01 14.33 0.02 14.66 -1 15 C-1.02685412 12.68756208 -1.04632841 10.3750373 -1.0625 8.0625 C-1.07410156 6.77472656 -1.08570313 5.48695313 -1.09765625 4.16015625 C-1 1 -1 1 0 0 Z " fill="#104769" transform="translate(151,138)"/>
<path d="M0 0 C2.125 0.375 2.125 0.375 4 1 C2.25 6.75 2.25 6.75 0 9 C-2.125 8.625 -2.125 8.625 -4 8 C-2.25 2.25 -2.25 2.25 0 0 Z " fill="#194D6E" transform="translate(88,119)"/>
<path d="M0 0 C0.66 0.33 1.32 0.66 2 1 C2.33 2.32 2.66 3.64 3 5 C0.36 6.98 -2.28 8.96 -5 11 C-5.33 10.34 -5.66 9.68 -6 9 C-4.29864224 5.76742026 -2.23960447 2.87949147 0 0 Z " fill="#154A6B" transform="translate(145,159)"/>
<path d="M0 0 C0.33 0.99 0.66 1.98 1 3 C0.21625 3.845625 -0.5675 4.69125 -1.375 5.5625 C-4.97138296 9.49760047 -4.88847419 13.86981273 -5 19 C-5.66 18.67 -6.32 18.34 -7 18 C-7.29128045 12.36857798 -7.11798003 8.89968291 -4 4 C-1.8125 1.625 -1.8125 1.625 0 0 Z " fill="#215271" transform="translate(72,60)"/>
<path d="M0 0 C0.99 0 1.98 0 3 0 C3 4.95 3 9.9 3 15 C1.68 14.34 0.36 13.68 -1 13 C-0.67 8.71 -0.34 4.42 0 0 Z " fill="#E6E7E9" transform="translate(108,140)"/>
<path d="M0 0 C0.99 0 1.98 0 3 0 C3.66 0.99 4.32 1.98 5 3 C3.68 4.65 2.36 6.3 1 8 C0.01 7.67 -0.98 7.34 -2 7 C-1.125 2.25 -1.125 2.25 0 0 Z " fill="#1C4E6E" transform="translate(175,166)"/>
<path d="M0 0 C2.33944736 0.28730055 4.6739143 0.61936779 7 1 C7.33 1.99 7.66 2.98 8 4 C5.36 4.33 2.72 4.66 0 5 C-0.5625 3.0625 -0.5625 3.0625 -1 1 C-0.67 0.67 -0.34 0.34 0 0 Z " fill="#5CAFA7" transform="translate(135,86)"/>
<path d="M0 0 C0.66 0 1.32 0 2 0 C2 3.63 2 7.26 2 11 C1.01 10.67 0.02 10.34 -1 10 C-1.02689216 8.52093108 -1.04634621 7.04172517 -1.0625 5.5625 C-1.07410156 4.73878906 -1.08570312 3.91507813 -1.09765625 3.06640625 C-1 1 -1 1 0 0 Z " fill="#0A4567" transform="translate(72,140)"/>
<path d="M0 0 C0.33 0 0.66 0 1 0 C1.05386629 2.12472576 1.09273071 4.24983652 1.125 6.375 C1.14820312 7.55835938 1.17140625 8.74171875 1.1953125 9.9609375 C1 13 1 13 -1 15 C-3.09230769 10.56923077 -3.09230769 10.56923077 -2.625 7.6875 C-2.41875 7.130625 -2.2125 6.57375 -2 6 C-1.67 6.66 -1.34 7.32 -1 8 C-0.67 5.36 -0.34 2.72 0 0 Z " fill="#B9C3CC" transform="translate(101,139)"/>
<path d="M0 0 C-0.66 1.98 -1.32 3.96 -2 6 C-3.65 6.33 -5.3 6.66 -7 7 C-7 6.34 -7 5.68 -7 5 C-6.34 5 -5.68 5 -5 5 C-5 4.34 -5 3.68 -5 3 C-5.66 2.67 -6.32 2.34 -7 2 C-2.25 0 -2.25 0 0 0 Z " fill="#E3E6E9" transform="translate(139,160)"/>
<path d="M0 0 C0 0.66 0 1.32 0 2 C-0.66 2 -1.32 2 -2 2 C-2 2.66 -2 3.32 -2 4 C-4.31 4 -6.62 4 -9 4 C-8.67 3.01 -8.34 2.02 -8 1 C-5.17884816 -0.07009208 -3.09455459 0 0 0 Z " fill="#F9F9F8" transform="translate(134,163)"/>
<path d="M0 0 C1.32 0.33 2.64 0.66 4 1 C3.01 1.495 3.01 1.495 2 2 C2 2.66 2 3.32 2 4 C2.66 4.33 3.32 4.66 4 5 C2.68 5 1.36 5 0 5 C-0.33 5.66 -0.66 6.32 -1 7 C-1.99 6.67 -2.98 6.34 -4 6 C-2.68 4.02 -1.36 2.04 0 0 Z " fill="#D6DBDF" transform="translate(78,105)"/>
<path d="M0 0 C0.99 0 1.98 0 3 0 C2.67 1.98 2.34 3.96 2 6 C0.68 6 -0.64 6 -2 6 C-1.125 1.125 -1.125 1.125 0 0 Z " fill="#0D4467" transform="translate(97,128)"/>
<path d="M0 0 C1.65 0 3.3 0 5 0 C5.33 0.99 5.66 1.98 6 3 C6.66 3.66 7.32 4.32 8 5 C5.125 4.75 5.125 4.75 2 4 C0.625 1.9375 0.625 1.9375 0 0 Z " fill="#F6F5F5" transform="translate(88,97)"/>
<path d="M0 0 C0.66 0 1.32 0 2 0 C2.33 1.98 2.66 3.96 3 6 C1.68 6 0.36 6 -1 6 C-1.33 5.01 -1.66 4.02 -2 3 C-1.34 2.01 -0.68 1.02 0 0 Z " fill="#164A6B" transform="translate(97,149)"/>
<path d="M0 0 C2 3.75 2 3.75 2 6 C0.35 6.33 -1.3 6.66 -3 7 C-2.67 5.35 -2.34 3.7 -2 2 C-1.34 2 -0.68 2 0 2 C0 1.34 0 0.68 0 0 Z " fill="#215473" transform="translate(86,148)"/>
</svg>
